<?xml version="1.0" standalone="no"?>
<!DOCTYPE svg PUBLIC "-//W3C//DTD SVG 20010904//EN"
 "http://www.w3.org/TR/2001/REC-SVG-20010904/DTD/svg10.dtd">
<svg version="1.0" xmlns="http://www.w3.org/2000/svg"
 width="1638.000000pt" height="1453.000000pt" viewBox="0 0 1638.000000 1453.000000"
 preserveAspectRatio="xMidYMid meet">

<g transform="translate(0.000000,1453.000000) scale(0.100000,-0.100000)"
fill="#000000" stroke="none">
<path d="M5860 13264 c-3793 -2306 -4581 -2786 -4578 -2789 2 -2 733 -581
1626 -1288 l1623 -1284 107 -22 c159 -33 358 -103 527 -185 260 -126 431 -245
629 -436 204 -198 338 -380 467 -635 l76 -150 2914 -2307 c2692 -2131 2919
-2308 2984 -2332 145 -54 305 -181 391 -310 39 -60 76 -89 1656 -1338 l137
-109 972 271 c535 148 974 272 977 274 2 3 -355 596 -793 1318 -439 722 -2245
3694 -4013 6603 -1768 2910 -3305 5439 -3415 5620 -110 182 -205 335 -211 342
-9 10 -483 -274 -2076 -1243z"/>
</g>
</svg>
